# xmcd
#
# Track frame offsets:
#	150
#	15145
#	27665
#	39705
#	52970
#	66100
#	80900
#	90065
#	100177
#	109542
#	123610
#	135892
#	147622
#	159990
#	172040
#	182509
#	193332
#	204645
#	216817
#	227962
#
# Disc length: 3220 seconds
#
# Revision: 0
# Processed by: cddbd v1.5.2PL0 Copyright (c) Steve Scherf et al.
# Submitted via: EasyCDDAExtractor 16.0.8.1
#
DISCID=140c9214
DTITLE=Iridio and Irineu -  Raizes Sertanejas
DYEAR=1900
DGENRE=Country
TTITLE0=Oi , viola
TTITLE1=O menino e a rosa
TTITLE2=Fofoca de mim
TTITLE3=Mocinhas da cidade
TTITLE4=Recordação de boaideiro
TTITLE5=Laço da saudade
TTITLE6=Namoro Proibido
TTITLE7=O gamadão
TTITLE8=A vitrola da vizinha
TTITLE9=Vem cá moreninha
TTITLE10=Ladrão de bicicleta
TTITLE11=Boiada criminosa
TTITLE12=Promessa de artista
TTITLE13=O grande golpa
TTITLE14=Bica d´agua
TTITLE15=meu coração não aguenta
TTITLE16=Realidade
TTITLE17=Pé de boi e mão de vaca
TTITLE18=Homenagem ao sertão
TTITLE19=Bom Jesus de Pirapora
EXTD=
EXTT0=
EXTT1=
EXTT2=
EXTT3=
EXTT4=
EXTT5=
EXTT6=
EXTT7=
EXTT8=
EXTT9=
EXTT10=
EXTT11=
EXTT12=
EXTT13=
EXTT14=
EXTT15=
EXTT16=
EXTT17=
EXTT18=
EXTT19=
PLAYORDER=
